<svg xmlns="http://www.w3.org/2000/svg" width="310" height="51" viewBox="0 0 310 51">
  <defs>
    <linearGradient id="a" x1="0%" x2="97.04%" y1="50%" y2="50%">
      <stop stop-color="#EB6A6A" offset="0%"/>
      <stop stop-color="#EB6A6A" stop-opacity="0" offset="100%"/>
    </linearGradient>
    <linearGradient id="b" x1="0%" y1="50%" y2="50%">
      <stop stop-color="#EB6A6A" stop-opacity="0" offset="0%"/>
      <stop stop-color="#EB696A" offset="100%"/>
    </linearGradient>
  </defs>
  <g fill="none" fill-rule="evenodd">
    <path fill="#6E6E6E" d="M161.238782,29.91915 L161.238782,17.499375 L154.860082,17.499375 L154.860082,12.853275 L161.238782,12.853275 L161.238782,6.375 L166.664004,6.375 L166.664004,12.853275 L173.031185,12.853275 L173.031185,17.499375 L166.664004,17.499375 L166.664004,29.07 C166.664004,31.169925 167.739066,32.0178 169.579469,32.0178 C170.787634,32.0178 171.867815,31.75005 172.942877,31.21455 L172.942877,35.637525 C171.59777,36.39615 170.073486,36.843675 168.055185,36.843675 C164.063379,36.843675 161.238782,35.10075 161.238782,29.91915 Z M188.831393,12.85302 L194.256615,12.85302 L194.256615,18.168495 C195.738665,14.639295 198.471113,12.226995 202.642097,12.40677 L202.642097,18.125145 L202.329817,18.125145 C197.575228,18.125145 194.256615,21.20682 194.256615,27.46197 L194.256615,36.441795 L188.831393,36.441795 L188.831393,12.85302 Z M232.092901,36.441285 L232.092901,33.53811 C230.480308,35.45826 228.014065,36.93216 224.425407,36.93216 C219.939584,36.93216 215.993851,34.385985 215.993851,29.650635 L215.993851,29.561385 C215.993851,24.333885 220.076526,21.832335 225.592617,21.832335 C228.462008,21.832335 230.298572,22.23396 232.138975,22.81536 L232.138975,22.36911 C232.138975,19.10766 230.0746,17.321385 226.306765,17.321385 C223.661345,17.321385 221.689119,17.90151 219.536436,18.795285 L218.058226,14.46156 C220.658851,13.300035 223.213403,12.49551 227.070827,12.49551 C234.066407,12.49551 237.475888,16.158585 237.475888,22.45836 L237.475888,36.441285 L232.092901,36.441285 Z M232.229843,26.56896 C230.838662,26.032185 228.91123,25.63056 226.800781,25.63056 C223.39514,25.63056 221.376839,27.01521 221.376839,29.293635 L221.376839,29.382885 C221.376839,31.616685 223.39514,32.86746 225.949691,32.86746 C229.538349,32.86746 232.229843,30.856785 232.229843,27.90771 L232.229843,26.56896 Z M253.276224,33.3587175 L255.697673,29.6956425 C258.252224,31.6170675 261.034586,32.5988175 263.456035,32.5988175 C265.786615,32.5988175 267.131722,31.6170675 267.131722,30.0526425 L267.131722,29.9633925 C267.131722,28.1312175 264.623245,27.5064675 261.840883,26.6573175 C258.343093,25.6742925 254.443434,24.2450175 254.443434,19.7327925 L254.443434,19.6435425 C254.443434,15.1759425 258.165195,12.4512675 262.87499,12.4512675 C265.832689,12.4512675 269.062994,13.4789175 271.572751,15.1313175 L269.420068,18.9741675 C267.131722,17.5882425 264.710274,16.7390925 262.738047,16.7390925 C260.631438,16.7390925 259.419434,17.7221175 259.419434,19.1067675 L259.419434,19.1972925 C259.419434,20.8943175 261.977825,21.6095925 264.756348,22.5033675 C268.208064,23.5756425 272.111562,25.1387925 272.111562,29.3819925 L272.111562,29.4725175 C272.111562,34.4309925 268.254138,36.8879175 263.322932,36.8879175 C259.959525,36.8879175 256.237763,35.6817675 253.276224,33.3587175 Z M287.096642,24.7366575 L287.096642,24.6461325 C287.096642,17.9013825 291.893465,12.3615075 298.667634,12.3615075 C306.202025,12.3615075 310.010815,18.2583825 310.010815,25.0490325 C310.010815,25.5399075 309.968581,26.0320575 309.923786,26.5688325 L292.524424,26.5688325 C293.106749,30.4104075 295.843037,32.5549575 299.340828,32.5549575 C301.986247,32.5549575 303.867605,31.5719325 305.754083,29.7397575 L308.935753,32.5549575 C306.692202,35.2350075 303.59884,36.9766575 299.249959,36.9766575 C292.387482,36.9766575 287.096642,32.0181825 287.096642,24.7366575 Z M304.631667,22.9950075 C304.270753,19.5091575 302.210219,16.7844825 298.62156,16.7844825 C295.304227,16.7844825 292.973647,19.3306575 292.47963,22.9950075 L304.631667,22.9950075 Z"/>
    <path fill="url(#a)" d="M5.69654733,19.33155 L0.313559671,19.33155 L0.313559671,31.208175 L5.69654733,31.208175 C13.0504815,31.208175 20.2495556,27.449475 28.5851235,23.099175 C38.3937819,17.9775 49.5129918,12.1737 62.3740576,12.1737 C75.2364033,12.1737 86.3530535,17.9775 96.1629918,23.099175 C96.4816708,23.264925 96.7965103,23.4294 97.1113498,23.5926 C102.115506,20.985225 106.721634,18.644325 111.213856,17.26605 C108.322708,16.0344 105.125679,14.3667 101.69828,12.5766 C91.216428,7.1043 78.1710658,0.2958 62.3740576,0.2958 C46.5770494,0.2958 33.5316872,7.1043 23.0498354,12.5766 C16.1105679,16.201425 10.1158189,19.33155 5.69654733,19.33155 Z"/>
    <path fill="url(#b)" d="M119.051568,19.33155 C111.697634,19.33155 104.49856,23.088975 96.1629918,27.44055 C86.3530535,32.562225 75.2364033,38.366025 62.3740576,38.366025 C49.5129918,38.366025 38.3937819,32.562225 28.5851235,27.44055 C28.2651646,27.2748 27.9516049,27.110325 27.6367654,26.94585 C22.6326091,29.5545 18.0264815,31.8954 13.5342593,33.273675 C16.4254074,34.50405 19.6224362,36.17175 23.0498354,37.96185 C33.5316872,43.43415 46.5770494,50.243925 62.3740576,50.243925 C78.1710658,50.243925 91.216428,43.43415 101.69828,37.96185 C108.637547,34.3383 114.632296,31.208175 119.051568,31.208175 L124.434556,31.208175 L124.434556,19.33155 L119.051568,19.33155 L119.051568,19.33155 Z"/>
  </g>
</svg>
